<svg height="3390" width="720" xmlns="http://www.w3.org/2000/svg">
<rect height="3390" fill="#555" width="720"></rect>
<text fill="#7f7" font-family="Courier New" font-size="12" xml:space="preserve">
<tspan x="10" y="26">49 megabytes installed</tspan>
<tspan x="10" y="42"></tspan>
<tspan x="10" y="58">node_modules</tspan>
<tspan x="10" y="74">└─┬ strong-supervisor@6.1.1 </tspan>
<tspan x="10" y="90">  ├─┬ appmetrics@1.2.0 </tspan>
<tspan x="10" y="106">  │ ├─┬ jszip@2.5.0 </tspan>
<tspan x="10" y="122">  │ │ └── pako@0.2.9 </tspan>
<tspan x="10" y="138">  │ ├── nan@2.6.2 </tspan>
<tspan x="10" y="154">  │ └─┬ tar@2.2.1 </tspan>
<tspan x="10" y="170">  │   ├── block-stream@0.0.9 </tspan>
<tspan x="10" y="186">  │   ├─┬ fstream@1.0.10 </tspan>
<tspan x="10" y="202">  │   │ ├── graceful-fs@4.1.11 </tspan>
<tspan x="10" y="218">  │   │ ├─┬ mkdirp@0.5.1 </tspan>
<tspan x="10" y="234">  │   │ │ └── minimist@0.0.8 </tspan>
<tspan x="10" y="250">  │   │ └─┬ rimraf@2.5.4 </tspan>
<tspan x="10" y="266">  │   │   └─┬ glob@7.1.1 </tspan>
<tspan x="10" y="282">  │   │     ├── fs.realpath@1.0.0 </tspan>
<tspan x="10" y="298">  │   │     ├─┬ inflight@1.0.6 </tspan>
<tspan x="10" y="314">  │   │     │ └── wrappy@1.0.2 </tspan>
<tspan x="10" y="330">  │   │     ├─┬ minimatch@3.0.3 </tspan>
<tspan x="10" y="346">  │   │     │ └─┬ brace-expansion@1.1.6 </tspan>
<tspan x="10" y="362">  │   │     │   ├── balanced-match@0.4.2 </tspan>
<tspan x="10" y="378">  │   │     │   └── concat-map@0.0.1 </tspan>
<tspan x="10" y="394">  │   │     ├─┬ once@1.4.0 </tspan>
<tspan x="10" y="410">  │   │     │ └── wrappy@1.0.2 </tspan>
<tspan x="10" y="426">  │   │     └── path-is-absolute@1.0.1 </tspan>
<tspan x="10" y="442">  │   └── inherits@2.0.3 </tspan>
<tspan x="10" y="458">  ├─┬ appmetrics-dash@3.1.0 </tspan>
<tspan x="10" y="474">  │ ├─┬ appmetrics@2.0.1 </tspan>
<tspan x="10" y="490">  │ │ └─┬ tar@2.2.1 </tspan>
<tspan x="10" y="506">  │ │   ├── block-stream@0.0.9 </tspan>
<tspan x="10" y="522">  │ │   ├─┬ fstream@1.0.10 </tspan>
<tspan x="10" y="538">  │ │   │ ├── graceful-fs@4.1.11 </tspan>
<tspan x="10" y="554">  │ │   │ ├─┬ mkdirp@0.5.1 </tspan>
<tspan x="10" y="570">  │ │   │ │ └── minimist@0.0.8 </tspan>
<tspan x="10" y="586">  │ │   │ └─┬ rimraf@2.5.4 </tspan>
<tspan x="10" y="602">  │ │   │   └─┬ glob@7.1.1 </tspan>
<tspan x="10" y="618">  │ │   │     ├── fs.realpath@1.0.0 </tspan>
<tspan x="10" y="634">  │ │   │     ├─┬ inflight@1.0.6 </tspan>
<tspan x="10" y="650">  │ │   │     │ └── wrappy@1.0.2 </tspan>
<tspan x="10" y="666">  │ │   │     ├─┬ minimatch@3.0.3 </tspan>
<tspan x="10" y="682">  │ │   │     │ └─┬ brace-expansion@1.1.6 </tspan>
<tspan x="10" y="698">  │ │   │     │   ├── balanced-match@0.4.2 </tspan>
<tspan x="10" y="714">  │ │   │     │   └── concat-map@0.0.1 </tspan>
<tspan x="10" y="730">  │ │   │     ├─┬ once@1.4.0 </tspan>
<tspan x="10" y="746">  │ │   │     │ └── wrappy@1.0.2 </tspan>
<tspan x="10" y="762">  │ │   │     └── path-is-absolute@1.0.1 </tspan>
<tspan x="10" y="778">  │ │   └── inherits@2.0.3 </tspan>
<tspan x="10" y="794">  │ ├─┬ express@4.15.2 </tspan>
<tspan x="10" y="810">  │ │ ├─┬ accepts@1.3.3 </tspan>
<tspan x="10" y="826">  │ │ │ ├─┬ mime-types@2.1.15 </tspan>
<tspan x="10" y="842">  │ │ │ │ └── mime-db@1.27.0 </tspan>
<tspan x="10" y="858">  │ │ │ └── negotiator@0.6.1 </tspan>
<tspan x="10" y="874">  │ │ ├── array-flatten@1.1.1 </tspan>
<tspan x="10" y="890">  │ │ ├── content-disposition@0.5.2 </tspan>
<tspan x="10" y="906">  │ │ ├── content-type@1.0.2 </tspan>
<tspan x="10" y="922">  │ │ ├── cookie@0.3.1 </tspan>
<tspan x="10" y="938">  │ │ ├── cookie-signature@1.0.6 </tspan>
<tspan x="10" y="954">  │ │ ├── debug@2.6.1 </tspan>
<tspan x="10" y="970">  │ │ ├── depd@1.1.0 </tspan>
<tspan x="10" y="986">  │ │ ├── encodeurl@1.0.1 </tspan>
<tspan x="10" y="1002">  │ │ ├── escape-html@1.0.3 </tspan>
<tspan x="10" y="1018">  │ │ ├── etag@1.8.0 </tspan>
<tspan x="10" y="1034">  │ │ ├─┬ finalhandler@1.0.1 </tspan>
<tspan x="10" y="1050">  │ │ │ └── unpipe@1.0.0 </tspan>
<tspan x="10" y="1066">  │ │ ├── fresh@0.5.0 </tspan>
<tspan x="10" y="1082">  │ │ ├── merge-descriptors@1.0.1 </tspan>
<tspan x="10" y="1098">  │ │ ├── methods@1.1.2 </tspan>
<tspan x="10" y="1114">  │ │ ├─┬ on-finished@2.3.0 </tspan>
<tspan x="10" y="1130">  │ │ │ └── ee-first@1.1.1 </tspan>
<tspan x="10" y="1146">  │ │ ├── parseurl@1.3.1 </tspan>
<tspan x="10" y="1162">  │ │ ├── path-to-regexp@0.1.7 </tspan>
<tspan x="10" y="1178">  │ │ ├─┬ proxy-addr@1.1.4 </tspan>
<tspan x="10" y="1194">  │ │ │ ├── forwarded@0.1.0 </tspan>
<tspan x="10" y="1210">  │ │ │ └── ipaddr.js@1.3.0 </tspan>
<tspan x="10" y="1226">  │ │ ├── qs@6.4.0 </tspan>
<tspan x="10" y="1242">  │ │ ├── range-parser@1.2.0 </tspan>
<tspan x="10" y="1258">  │ │ ├─┬ send@0.15.1 </tspan>
<tspan x="10" y="1274">  │ │ │ ├── debug@2.6.1 </tspan>
<tspan x="10" y="1290">  │ │ │ ├── destroy@1.0.4 </tspan>
<tspan x="10" y="1306">  │ │ │ ├─┬ http-errors@1.6.1 </tspan>
<tspan x="10" y="1322">  │ │ │ │ └── inherits@2.0.3 </tspan>
<tspan x="10" y="1338">  │ │ │ └── mime@1.3.4 </tspan>
<tspan x="10" y="1354">  │ │ ├── serve-static@1.12.1 </tspan>
<tspan x="10" y="1370">  │ │ ├── setprototypeof@1.0.3 </tspan>
<tspan x="10" y="1386">  │ │ ├── statuses@1.3.1 </tspan>
<tspan x="10" y="1402">  │ │ ├─┬ type-is@1.6.15 </tspan>
<tspan x="10" y="1418">  │ │ │ └── media-typer@0.3.0 </tspan>
<tspan x="10" y="1434">  │ │ ├── utils-merge@1.0.0 </tspan>
<tspan x="10" y="1450">  │ │ └── vary@1.1.1 </tspan>
<tspan x="10" y="1466">  │ ├─┬ express-basic-auth@0.2.3 </tspan>
<tspan x="10" y="1482">  │ │ └── basic-auth@1.1.0 </tspan>
<tspan x="10" y="1498">  │ ├── node-report@2.1.2 </tspan>
<tspan x="10" y="1514">  │ └─┬ socket.io@1.7.3 </tspan>
<tspan x="10" y="1530">  │   ├── debug@2.3.3 </tspan>
<tspan x="10" y="1546">  │   ├─┬ engine.io@1.8.3 </tspan>
<tspan x="10" y="1562">  │   │ ├── base64id@1.0.0 </tspan>
<tspan x="10" y="1578">  │   │ ├── debug@2.3.3 </tspan>
<tspan x="10" y="1594">  │   │ └─┬ engine.io-parser@1.3.2 </tspan>
<tspan x="10" y="1610">  │   │   ├── after@0.8.2 </tspan>
<tspan x="10" y="1626">  │   │   ├── arraybuffer.slice@0.0.6 </tspan>
<tspan x="10" y="1642">  │   │   ├── base64-arraybuffer@0.1.5 </tspan>
<tspan x="10" y="1658">  │   │   ├── blob@0.0.4 </tspan>
<tspan x="10" y="1674">  │   │   └── wtf-8@1.0.0 </tspan>
<tspan x="10" y="1690">  │   ├─┬ has-binary@0.1.7 </tspan>
<tspan x="10" y="1706">  │   │ └── isarray@0.0.1 </tspan>
<tspan x="10" y="1722">  │   ├── object-assign@4.1.0 </tspan>
<tspan x="10" y="1738">  │   ├─┬ socket.io-adapter@0.5.0 </tspan>
<tspan x="10" y="1754">  │   │ └── debug@2.3.3 </tspan>
<tspan x="10" y="1770">  │   ├─┬ socket.io-client@1.7.3 </tspan>
<tspan x="10" y="1786">  │   │ ├── backo2@1.0.2 </tspan>
<tspan x="10" y="1802">  │   │ ├── component-bind@1.0.0 </tspan>
<tspan x="10" y="1818">  │   │ ├── component-emitter@1.2.1 </tspan>
<tspan x="10" y="1834">  │   │ ├── debug@2.3.3 </tspan>
<tspan x="10" y="1850">  │   │ ├─┬ engine.io-client@1.8.3 </tspan>
<tspan x="10" y="1866">  │   │ │ ├── component-emitter@1.2.1 </tspan>
<tspan x="10" y="1882">  │   │ │ ├── component-inherit@0.0.3 </tspan>
<tspan x="10" y="1898">  │   │ │ ├── debug@2.3.3 </tspan>
<tspan x="10" y="1914">  │   │ │ ├── has-cors@1.1.0 </tspan>
<tspan x="10" y="1930">  │   │ │ ├── parsejson@0.0.3 </tspan>
<tspan x="10" y="1946">  │   │ │ ├── parseqs@0.0.5 </tspan>
<tspan x="10" y="1962">  │   │ │ ├── xmlhttprequest-ssl@1.5.3 </tspan>
<tspan x="10" y="1978">  │   │ │ └── yeast@0.1.2 </tspan>
<tspan x="10" y="1994">  │   │ ├── indexof@0.0.1 </tspan>
<tspan x="10" y="2010">  │   │ ├── object-component@0.0.3 </tspan>
<tspan x="10" y="2026">  │   │ ├─┬ parseuri@0.0.5 </tspan>
<tspan x="10" y="2042">  │   │ │ └─┬ better-assert@1.0.2 </tspan>
<tspan x="10" y="2058">  │   │ │   └── callsite@1.0.0 </tspan>
<tspan x="10" y="2074">  │   │ └── to-array@0.1.4 </tspan>
<tspan x="10" y="2090">  │   └─┬ socket.io-parser@2.3.1 </tspan>
<tspan x="10" y="2106">  │     ├── component-emitter@1.1.2 </tspan>
<tspan x="10" y="2122">  │     ├─┬ debug@2.2.0 </tspan>
<tspan x="10" y="2138">  │     │ └── ms@0.7.1 </tspan>
<tspan x="10" y="2154">  │     └── json3@3.3.2 </tspan>
<tspan x="10" y="2170">  ├── async@2.3.0 </tspan>
<tspan x="10" y="2186">  ├─┬ debug@2.6.3 </tspan>
<tspan x="10" y="2202">  │ └── ms@0.7.2 </tspan>
<tspan x="10" y="2218">  ├── dotenv@1.2.0 </tspan>
<tspan x="10" y="2234">  ├── heapdump@0.3.9 </tspan>
<tspan x="10" y="2250">  ├── lodash@4.17.4 </tspan>
<tspan x="10" y="2266">  ├── modern-syslog@1.1.4 </tspan>
<tspan x="10" y="2282">  ├── posix-getopt@1.2.0 </tspan>
<tspan x="10" y="2298">  ├─┬ strong-cluster-control@2.2.3 </tspan>
<tspan x="10" y="2314">  │ └── lodash@3.10.1 </tspan>
<tspan x="10" y="2330">  ├─┬ strong-control-channel@2.2.3 </tspan>
<tspan x="10" y="2346">  │ ├── async@0.9.2 </tspan>
<tspan x="10" y="2362">  │ ├─┬ newline-json@0.1.1 </tspan>
<tspan x="10" y="2378">  │ │ └── stream2buffer@0.0.4 </tspan>
<tspan x="10" y="2394">  │ └─┬ ws@1.1.2 </tspan>
<tspan x="10" y="2410">  │   ├── options@0.0.6 </tspan>
<tspan x="10" y="2426">  │   └── ultron@1.0.2 </tspan>
<tspan x="10" y="2442">  ├─┬ strong-log-transformer@1.0.6 </tspan>
<tspan x="10" y="2458">  │ ├── byline@5.0.0 </tspan>
<tspan x="10" y="2474">  │ ├── duplexer@0.1.1 </tspan>
<tspan x="10" y="2490">  │ ├── minimist@0.1.0 </tspan>
<tspan x="10" y="2506">  │ ├── moment@2.18.1 </tspan>
<tspan x="10" y="2522">  │ └── through@2.3.8 </tspan>
<tspan x="10" y="2538">  ├─┬ strong-npm-ls@1.0.10 </tspan>
<tspan x="10" y="2554">  │ ├─┬ read-installed@4.0.3 </tspan>
<tspan x="10" y="2570">  │ │ ├── debuglog@1.0.1 </tspan>
<tspan x="10" y="2586">  │ │ ├── graceful-fs@4.1.11 </tspan>
<tspan x="10" y="2602">  │ │ ├─┬ read-package-json@2.0.5 </tspan>
<tspan x="10" y="2618">  │ │ │ ├─┬ glob@7.1.1 </tspan>
<tspan x="10" y="2634">  │ │ │ │ ├── fs.realpath@1.0.0 </tspan>
<tspan x="10" y="2650">  │ │ │ │ ├── inflight@1.0.6 </tspan>
<tspan x="10" y="2666">  │ │ │ │ ├─┬ minimatch@3.0.3 </tspan>
<tspan x="10" y="2682">  │ │ │ │ │ └─┬ brace-expansion@1.1.7 </tspan>
<tspan x="10" y="2698">  │ │ │ │ │   ├── balanced-match@0.4.2 </tspan>
<tspan x="10" y="2714">  │ │ │ │ │   └── concat-map@0.0.1 </tspan>
<tspan x="10" y="2730">  │ │ │ │ └── path-is-absolute@1.0.1 </tspan>
<tspan x="10" y="2746">  │ │ │ ├─┬ json-parse-helpfulerror@1.0.3 </tspan>
<tspan x="10" y="2762">  │ │ │ │ └── jju@1.3.0 </tspan>
<tspan x="10" y="2778">  │ │ │ └─┬ normalize-package-data@2.3.6 </tspan>
<tspan x="10" y="2794">  │ │ │   ├── hosted-git-info@2.4.2 </tspan>
<tspan x="10" y="2810">  │ │ │   ├─┬ is-builtin-module@1.0.0 </tspan>
<tspan x="10" y="2826">  │ │ │   │ └── builtin-modules@1.1.1 </tspan>
<tspan x="10" y="2842">  │ │ │   └─┬ validate-npm-package-license@3.0.1 </tspan>
<tspan x="10" y="2858">  │ │ │     ├─┬ spdx-correct@1.0.2 </tspan>
<tspan x="10" y="2874">  │ │ │     │ └── spdx-license-ids@1.2.2 </tspan>
<tspan x="10" y="2890">  │ │ │     └── spdx-expression-parse@1.0.4 </tspan>
<tspan x="10" y="2906">  │ │ ├─┬ readdir-scoped-modules@1.0.2 </tspan>
<tspan x="10" y="2922">  │ │ │ ├─┬ dezalgo@1.0.3 </tspan>
<tspan x="10" y="2938">  │ │ │ │ ├── asap@2.0.5 </tspan>
<tspan x="10" y="2954">  │ │ │ │ └── wrappy@1.0.2 </tspan>
<tspan x="10" y="2970">  │ │ │ └── once@1.4.0 </tspan>
<tspan x="10" y="2986">  │ │ ├── semver@5.3.0 </tspan>
<tspan x="10" y="3002">  │ │ ├── slide@1.1.6 </tspan>
<tspan x="10" y="3018">  │ │ └── util-extend@1.0.3 </tspan>
<tspan x="10" y="3034">  │ └── topiary@1.1.2 </tspan>
<tspan x="10" y="3050">  ├─┬ strong-statsd@2.0.7 </tspan>
<tspan x="10" y="3066">  │ ├── async@0.9.2 </tspan>
<tspan x="10" y="3082">  │ └─┬ statsd-udpkv-backend@0.2.1 </tspan>
<tspan x="10" y="3098">  │   ├── fmt@0.4.0 </tspan>
<tspan x="10" y="3114">  │   └── underscore@1.4.4 </tspan>
<tspan x="10" y="3130">  ├─┬ strong-trace@1.3.4 </tspan>
<tspan x="10" y="3146">  │ ├── esprima@1.2.5 </tspan>
<tspan x="10" y="3162">  │ ├── estraverse@1.9.3 </tspan>
<tspan x="10" y="3178">  │ ├── glob-to-regexp@0.0.1 </tspan>
<tspan x="10" y="3194">  │ ├── stats-incremental@1.1.0 </tspan>
<tspan x="10" y="3210">  │ ├─┬ statware@1.1.3 </tspan>
<tspan x="10" y="3226">  │ │ └── fixed-array@1.0.0 </tspan>
<tspan x="10" y="3242">  │ ├─┬ strongloop-license@1.5.2 </tspan>
<tspan x="10" y="3258">  │ │ ├─┬ strong-license@1.2.2 </tspan>
<tspan x="10" y="3274">  │ │ │ └── jwt-simple@0.2.0 </tspan>
<tspan x="10" y="3290">  │ │ └── user-home@1.1.1 </tspan>
<tspan x="10" y="3306">  │ ├─┬ transaction-tracer@1.1.0 </tspan>
<tspan x="10" y="3322">  │ │ ├── eenano@1.0.0 </tspan>
<tspan x="10" y="3338">  │ │ └── seqid@1.0.1 </tspan>
<tspan x="10" y="3354">  │ └── xtend@4.0.1 </tspan>
<tspan x="10" y="3370">  └── strong-url-defaults@1.2.3</tspan>
</text>
</svg>
